<?xml version="1.0" standalone="no"?>
<!DOCTYPE svg PUBLIC "-//W3C//DTD SVG 20010904//EN"
 "http://www.w3.org/TR/2001/REC-SVG-20010904/DTD/svg10.dtd">
<svg version="1.0" xmlns="http://www.w3.org/2000/svg"
 width="1024.000000pt" height="1024.000000pt" viewBox="0 0 1024.000000 1024.000000"
 preserveAspectRatio="xMidYMid meet">

<g transform="translate(0.000000,1024.000000) scale(0.100000,-0.100000)"
fill="#000000" stroke="none">
<path d="M3645 8678 c17 -12 75 -68 130 -124 112 -114 181 -223 227 -359 19
-55 26 -67 22 -40 -8 54 -84 214 -140 292 -54 76 -163 185 -224 225 -25 16
-31 19 -15 6z"/>
<path d="M2855 8612 c-32 -6 -107 -33 -145 -52 -19 -10 -41 -15 -49 -12 -8 3
-11 0 -7 -6 4 -7 -4 -14 -19 -18 -14 -3 -25 -10 -25 -14 0 -4 -8 -10 -17 -14
-10 -3 -24 -9 -32 -12 -9 -4 -11 -2 -7 5 5 7 1 9 -8 5 -9 -3 -14 -9 -11 -14 2
-4 -8 -13 -23 -21 -29 -15 -51 -32 -84 -66 -12 -13 -27 -23 -34 -23 -6 0 -24
-16 -38 -35 -15 -19 -43 -52 -62 -72 -62 -67 -123 -214 -141 -338 -7 -54 -8
-259 -1 -315 3 -25 12 -66 18 -90 7 -25 11 -47 10 -49 -1 -2 2 -7 7 -10 4 -3
24 -37 42 -76 35 -70 42 -80 73 -115 9 -10 13 -22 10 -26 -4 -4 -1 -4 6 0 8 5
21 1 32 -9 11 -10 24 -14 32 -9 10 6 10 4 -1 -9 -12 -15 -12 -17 1 -12 18 7
30 -27 23 -65 -3 -14 2 -6 11 18 19 50 28 51 14 1 -6 -18 -10 -50 -11 -69 0
-19 -5 -44 -10 -55 -7 -17 -8 -15 -6 10 1 17 -3 30 -10 30 -6 0 -15 3 -19 8
-4 4 -18 7 -32 7 -21 0 -22 -2 -12 -15 7 -8 8 -15 3 -15 -5 0 -10 -9 -11 -20
-4 -41 -6 -47 -16 -47 -6 0 -20 9 -31 20 -15 15 -16 19 -4 14 9 -3 16 0 16 8
0 10 -5 11 -19 4 -23 -12 -41 -2 -33 18 5 13 3 14 -10 3 -14 -12 -10 -20 37
-67 29 -30 65 -63 80 -74 l27 -20 21 38 c14 26 19 30 14 13 -5 -20 -4 -23 6
-13 7 7 17 55 21 111 9 98 26 166 55 210 15 23 14 27 -24 80 -50 72 -105 181
-126 252 -26 86 -32 249 -12 345 31 147 96 267 206 376 210 208 520 252 794
112 86 -43 204 -148 257 -226 21 -33 39 -55 39 -49 0 22 -90 131 -162 195 -69
63 -174 127 -206 127 -7 0 -11 4 -7 10 13 22 -131 64 -208 61 -15 -1 -36 3
-47 9 -11 6 -20 7 -20 3 0 -14 -81 -14 -98 -1 -9 8 -13 8 -9 2 9 -16 -35 -27
-45 -11 -6 9 -10 9 -17 -2 -7 -11 -9 -11 -13 0 -8 22 2 37 20 32 10 -2 31 1
47 8 17 7 33 13 37 13 3 1 9 4 13 7 8 9 -25 16 -50 11z m-128 -95 c0 -7 -6
-18 -14 -25 -9 -9 -13 -10 -13 -1 0 8 -4 9 -13 0 -8 -6 -17 -8 -21 -4 -4 4 -5
1 -2 -7 4 -10 -6 -21 -29 -32 -44 -22 -45 -7 -2 26 24 19 85 55 93 56 0 0 1
-6 1 -13z m43 3 c0 -5 -2 -10 -4 -10 -3 0 -8 5 -11 10 -3 6 -1 10 4 10 6 0 11
-4 11 -10z m-443 -462 c-3 -8 -6 -5 -6 6 -1 11 2 17 5 13 3 -3 4 -12 1 -19z
m-41 -297 c-1 -88 -4 -151 -8 -141 -14 38 -12 300 2 300 4 0 6 -72 6 -159z"/>
<path d="M2986 8598 c5 -7 2 -9 -9 -5 -8 3 -18 0 -21 -8 -4 -11 12 -13 84 -12
49 2 92 5 95 9 4 3 -15 11 -42 16 -35 8 -50 8 -55 -1 -6 -9 -8 -8 -8 2 0 11
-3 11 -15 1 -10 -9 -15 -9 -15 -1 0 6 -5 11 -11 11 -5 0 -7 -5 -3 -12z"/>
<path d="M2905 8581 c-20 -4 -26 -9 -18 -14 11 -7 53 7 53 18 0 3 -1 4 -2 4
-2 -1 -16 -4 -33 -8z"/>
<path d="M3890 8253 c0 -6 4 -14 8 -17 5 -3 7 -20 5 -38 -1 -18 2 -57 8 -87
28 -139 -7 -341 -59 -341 -6 0 -12 7 -16 15 -3 8 -12 12 -21 9 -8 -3 -15 -1
-15 4 0 6 -10 9 -21 7 -12 -3 -19 -2 -15 2 3 3 2 11 -3 17 -4 6 -16 35 -26 65
-9 29 -20 48 -24 42 -4 -6 -13 13 -20 41 -7 29 -25 75 -39 102 -25 46 -27 47
-37 25 -5 -13 -17 -31 -26 -39 -22 -20 -49 -93 -49 -133 0 -48 45 -131 93
-172 111 -95 318 -111 472 -36 80 40 138 91 165 147 l22 45 -22 42 c-13 24
-40 56 -61 71 -21 16 -37 34 -36 39 1 6 -20 25 -48 43 -27 18 -59 41 -69 50
-18 16 -19 16 -13 -7 11 -43 20 -134 13 -128 -4 3 -10 26 -15 50 -6 32 -9 36
-10 17 -1 -16 -4 -28 -9 -28 -11 0 -33 40 -27 50 3 5 1 12 -5 15 -6 4 -18 24
-27 46 -8 21 -19 39 -24 39 -5 0 -7 12 -3 28 6 25 5 26 -8 8 -15 -19 -15 -19
-26 0 -6 10 -12 14 -12 7z m264 -182 c4 -5 -3 -7 -14 -4 -23 6 -26 13 -6 13 8
0 17 -4 20 -9z m-437 -183 c-3 -8 -6 -5 -6 6 -1 11 2 17 5 13 3 -3 4 -12 1
-19z"/>
<path d="M9122 7590 c0 -19 2 -27 5 -17 2 9 2 25 0 35 -3 9 -5 1 -5 -18z"/>
<path d="M8817 6996 c-113 -160 -327 -462 -475 -671 -699 -991 -693 -983 -754
-1041 -114 -110 -298 -184 -457 -184 -147 0 -185 12 -886 270 -181 67 -442
162 -580 211 -386 139 -512 184 -760 274 -126 46 -356 129 -510 184 -154 54
-311 111 -350 125 -38 14 -236 84 -440 155 -832 291 -899 316 -978 361 -67 37
-76 33 -14 -7 23 -15 44 -31 47 -34 3 -3 15 -9 28 -13 12 -4 22 -12 22 -17 0
-11 124 -70 200 -94 30 -10 59 -22 65 -26 5 -5 18 -9 30 -9 12 0 26 -5 32 -11
7 -7 22 -13 35 -14 38 -4 39 -5 34 -14 -3 -5 10 -12 29 -15 20 -4 33 -11 30
-16 -4 -6 7 -7 25 -4 19 4 30 2 30 -5 0 -6 3 -10 8 -9 4 0 15 -2 25 -5 9 -4
24 -9 33 -12 8 -3 12 -9 9 -15 -3 -6 1 -7 9 -4 9 3 16 1 16 -5 0 -6 17 -11 38
-11 21 0 43 -5 48 -10 6 -6 30 -14 55 -18 24 -5 43 -13 42 -19 -1 -6 21 -14
50 -18 31 -5 65 -17 84 -32 18 -14 36 -22 41 -19 6 3 27 -1 48 -8 22 -8 32
-15 24 -16 -23 -3 31 -18 68 -19 18 -1 31 -5 28 -10 -4 -5 4 -7 16 -3 16 4 20
2 16 -9 -4 -11 3 -15 29 -15 21 0 40 -7 47 -17 8 -10 20 -14 34 -11 11 4 35
-1 53 -10 18 -9 38 -16 44 -16 7 0 18 -7 25 -15 7 -8 15 -13 19 -10 4 2 20 -3
35 -11 16 -7 36 -14 45 -14 9 0 34 -10 56 -21 22 -12 51 -23 65 -25 51 -8 85
-22 83 -32 -2 -6 7 -9 18 -7 23 5 63 -18 52 -28 -3 -4 -1 -7 5 -7 7 0 12 4 12
10 0 11 80 -23 89 -38 3 -6 13 -10 21 -10 31 2 51 -2 46 -10 -2 -4 7 -9 22
-10 15 -1 29 -7 30 -12 2 -6 15 -10 28 -10 13 0 24 -5 24 -11 0 -5 5 -7 10 -4
6 3 10 2 10 -3 0 -5 11 -7 25 -5 14 3 31 -1 40 -11 9 -9 25 -16 35 -16 11 0
35 -9 54 -19 19 -11 43 -17 55 -14 12 3 21 1 21 -6 0 -6 7 -11 16 -11 9 0 12
-5 8 -12 -5 -9 -2 -9 9 1 9 7 17 9 17 5 0 -10 56 -32 102 -41 15 -3 26 -9 23
-13 -3 -4 7 -7 21 -7 15 0 30 -6 34 -12 4 -7 11 -11 16 -10 15 4 93 -21 99
-31 3 -6 -2 -10 -12 -11 -11 0 -13 -3 -5 -6 7 -3 19 1 27 7 12 10 15 10 15 0
0 -7 7 -10 16 -6 10 4 25 -1 36 -10 10 -10 32 -19 50 -21 17 -2 37 -11 44 -21
8 -12 28 -19 55 -21 24 -1 46 -6 49 -10 3 -5 23 -11 45 -15 22 -4 57 -16 78
-26 21 -10 51 -22 68 -25 16 -4 26 -11 23 -16 -3 -6 5 -9 18 -8 42 4 58 -1 58
-16 0 -9 8 -14 23 -13 26 2 107 -32 107 -45 0 -5 14 -6 31 -2 20 5 29 4 25 -3
-3 -6 11 -13 34 -17 23 -4 40 -12 40 -20 0 -13 17 -23 35 -21 5 0 9 4 8 8 -2
4 10 0 25 -8 15 -7 35 -14 45 -14 11 0 33 -10 50 -22 17 -12 28 -17 24 -11 -5
7 0 9 13 6 11 -3 20 -12 20 -19 0 -8 5 -14 10 -14 6 0 10 5 10 10 0 6 8 10 18
10 14 0 15 -2 2 -10 -13 -8 -13 -10 3 -11 30 -3 35 -4 43 -11 4 -5 16 -8 26
-8 10 0 18 -4 18 -9 0 -5 18 -11 40 -15 26 -4 38 -10 34 -17 -4 -7 0 -9 13 -5
13 4 29 -2 49 -19 29 -25 37 -28 84 -27 16 1 19 -1 8 -4 -10 -3 -18 -9 -18
-14 0 -5 6 -8 13 -6 6 3 25 7 41 11 26 5 28 4 17 -9 -12 -14 -10 -16 15 -16
37 0 104 -19 104 -28 0 -5 16 -8 36 -8 19 0 39 -6 43 -12 4 -7 24 -15 45 -17
27 -4 35 -2 30 7 -4 7 6 2 23 -10 36 -26 47 -28 39 -7 -4 12 4 15 40 15 25 0
43 -4 39 -9 -3 -5 0 -13 6 -17 8 -4 9 -3 5 4 -4 7 -1 12 8 12 8 0 18 -5 21
-10 7 -11 42 -9 63 3 7 5 10 12 8 16 -6 10 37 8 45 -2 3 -4 15 2 27 14 12 11
38 21 56 22 19 1 32 5 30 9 -2 4 1 10 7 14 6 3 15 1 19 -6 5 -8 9 -4 13 11 5
19 8 20 21 9 12 -9 16 -9 16 -1 0 7 5 9 13 4 18 -11 38 -13 31 -2 -3 5 -9 7
-14 4 -4 -3 -11 2 -14 11 -9 24 -8 26 13 19 12 -3 21 0 25 10 3 8 12 15 21 15
8 0 15 6 15 13 0 17 30 18 50 3 11 -8 11 -5 -2 15 -17 26 -16 27 5 33 18 5 20
8 7 16 -13 8 -12 10 3 10 21 0 47 23 47 42 0 10 2 10 9 -1 5 -7 14 -10 21 -6
9 6 9 9 1 15 -15 9 -3 40 16 40 9 0 13 6 10 14 -4 9 6 20 26 30 18 8 25 16 17
16 -12 0 -11 3 3 17 15 15 21 16 38 5 19 -12 19 -11 9 8 -8 14 -8 20 0 20 6 0
8 5 5 10 -3 6 -1 10 5 10 7 0 10 6 7 14 -6 14 49 83 63 79 4 -1 7 5 6 15 0 10
5 16 13 14 9 -2 12 4 8 18 -3 11 -1 20 5 20 5 0 6 5 3 10 -3 6 -2 10 3 10 4 0
19 10 32 23 14 12 29 21 35 19 5 -2 5 2 -2 9 -10 10 -7 17 15 36 15 12 23 23
19 23 -4 0 -3 9 3 21 7 13 17 18 27 15 14 -6 14 -4 2 10 -12 15 -11 16 11 11
14 -4 19 -4 13 -1 -28 13 4 71 33 60 7 -3 16 0 20 6 4 7 3 8 -4 4 -7 -4 -12
-2 -12 3 0 6 4 11 10 11 5 0 7 7 4 15 -4 10 0 15 15 15 14 0 19 5 14 16 -5 13
-8 13 -15 2 -8 -10 -9 -10 -5 2 2 8 12 16 23 18 18 3 30 22 48 75 3 10 10 15
16 12 5 -3 7 0 4 8 -3 8 6 18 21 25 14 6 25 16 25 22 0 6 5 8 12 4 7 -5 8 -3
3 6 -5 8 -1 18 10 26 14 11 16 16 6 28 -10 12 -8 14 11 9 23 -5 23 -5 3 11
-19 16 -19 16 9 10 25 -6 28 -4 23 10 -4 9 -1 16 5 16 7 0 7 4 -1 14 -14 17 9
29 37 20 14 -5 14 -4 2 5 -12 8 -11 14 10 36 14 15 25 34 25 43 0 9 15 26 33
38 18 13 33 25 32 28 -1 21 1 26 10 21 18 -11 31 5 20 26 -8 15 -8 19 2 17 7
-2 14 8 16 23 2 15 13 32 27 39 15 8 21 18 18 29 -4 9 -3 13 1 9 5 -4 19 4 33
18 17 17 22 31 18 47 -5 17 -4 18 4 7 5 -8 11 -12 13 -10 23 35 26 49 15 54
-7 3 -1 3 12 0 21 -5 23 -3 18 15 -3 12 -1 18 4 15 5 -3 20 3 33 14 23 17 23
20 9 35 -15 15 -15 16 4 11 11 -3 25 1 32 9 10 13 8 15 -13 13 -24 -3 -25 -2
-11 25 18 33 31 43 40 29 10 -16 25 -12 19 5 -4 8 -1 15 5 15 6 0 10 3 10 8
-4 22 3 34 15 29 11 -4 13 -1 9 10 -5 12 -2 15 10 10 10 -4 17 -2 17 4 0 6 7
8 17 5 14 -6 14 -4 -2 14 -15 17 -17 25 -8 38 80 117 99 175 69 217 -7 11 -22
36 -33 56 l-19 36 -207 -291z m22 -267 c-22 -14 -33 -10 -19 6 7 8 17 12 22 9
6 -4 5 -10 -3 -15z m-2119 -1599 c13 -8 13 -10 -2 -10 -9 0 -20 5 -23 10 -8
13 5 13 25 0z"/>
<path d="M2140 7137 c0 -2 14 -20 31 -38 l31 -34 -21 32 c-20 30 -41 50 -41
40z"/>
<path d="M2390 6906 c0 -7 -8 -20 -17 -27 -11 -9 -14 -10 -9 -2 5 9 2 11 -8 7
-9 -3 -13 -10 -10 -15 3 -5 0 -9 -5 -9 -6 0 -11 -4 -11 -10 0 -5 7 -7 16 -3
12 4 14 0 8 -23 -4 -16 -14 -39 -22 -51 -7 -12 -15 -40 -16 -62 -1 -22 -5 -43
-9 -47 -11 -11 -8 -24 6 -24 9 0 12 -55 12 -239 0 -132 4 -239 8 -238 9 2 47
-95 52 -132 2 -18 -10 -38 -44 -74 -66 -69 -75 -90 -60 -135 18 -57 46 -108
80 -147 18 -20 29 -38 25 -42 -3 -3 -1 -12 5 -20 9 -10 8 -13 -5 -13 -9 0 -16
-4 -16 -10 0 -5 8 -7 18 -4 9 3 4 -2 -13 -12 -42 -24 -96 -65 -118 -89 -14
-15 -18 -30 -14 -63 5 -44 19 -68 100 -171 l47 -60 -22 -21 c-13 -12 -38 -28
-56 -37 -19 -9 -49 -31 -68 -48 -28 -27 -34 -40 -34 -73 0 -57 11 -81 70 -148
78 -89 78 -87 17 -130 -28 -21 -62 -47 -74 -59 -12 -11 -31 -29 -42 -39 -42
-39 -17 -112 63 -185 29 -27 36 -51 9 -30 -16 13 -17 12 -4 -3 7 -10 17 -15
22 -13 4 3 13 -5 20 -17 12 -22 11 -22 -6 -8 -17 14 -17 14 -5 -7 8 -12 18
-19 22 -17 4 3 8 2 8 -1 0 -11 -45 -52 -93 -85 -75 -50 -117 -90 -117 -111 0
-29 34 -91 85 -154 25 -30 41 -55 37 -55 -5 0 -7 -11 -4 -25 2 -14 11 -25 20
-25 9 0 -4 -15 -28 -32 -23 -18 -53 -42 -64 -53 -12 -11 -14 -14 -5 -7 12 10
19 10 24 2 4 -6 4 -14 0 -18 -6 -7 -10 -8 -36 -11 -5 0 -7 -6 -4 -11 4 -6 3
-10 -2 -9 -20 3 -23 -2 -13 -22 7 -11 9 -23 6 -26 -3 -3 -10 6 -16 21 -14 38
-34 27 -38 -20 -3 -34 4 -49 46 -107 27 -36 52 -64 54 -61 8 8 29 -22 33 -49
4 -19 -3 -30 -32 -50 -21 -15 -32 -27 -25 -27 7 0 10 -4 7 -10 -3 -5 -15 -10
-25 -10 -30 0 -100 -72 -100 -104 0 -34 26 -85 83 -161 25 -33 41 -62 37 -65
-16 -10 1 -52 18 -45 12 4 11 0 -4 -17 -10 -13 -25 -27 -32 -31 -6 -4 -44 -35
-83 -69 -39 -34 -69 -55 -67 -47 1 8 -17 45 -40 83 l-44 68 -45 -6 c-24 -3
-59 -12 -76 -20 -18 -7 -61 -25 -97 -40 -36 -15 -73 -32 -84 -37 -14 -8 -22
-7 -30 3 -12 13 -67 129 -105 221 -14 34 -25 47 -40 47 -28 0 -162 -50 -179
-66 -7 -8 -15 -14 -17 -14 -3 0 -34 -11 -70 -25 l-65 -24 -30 57 c-16 31 -29
53 -30 49 0 -4 11 -30 25 -58 41 -80 51 -81 219 -14 80 31 149 55 155 54 5 -2
39 -63 75 -136 51 -104 70 -134 89 -138 16 -4 60 8 133 39 136 56 160 62 181
45 17 -15 73 -128 98 -199 8 -23 23 -53 33 -68 11 -15 40 -67 66 -117 52 -98
76 -125 112 -125 14 0 69 23 124 50 70 35 102 47 105 38 2 -7 9 -53 15 -103
18 -133 44 -250 64 -279 19 -30 45 -33 107 -10 24 8 82 24 128 35 l85 21 16
-22 c9 -12 39 -74 66 -137 28 -68 58 -122 70 -130 20 -12 36 -10 154 27 138
42 181 48 197 28 6 -7 29 -60 53 -118 55 -137 66 -157 87 -164 10 -3 69 10
132 29 120 37 181 44 199 22 6 -7 30 -60 52 -118 49 -127 60 -149 82 -163 17
-10 42 -4 248 64 78 26 75 27 111 -62 58 -138 103 -223 122 -226 10 -2 76 13
147 33 71 20 137 35 147 33 23 -4 57 -67 101 -182 36 -96 55 -126 81 -126 9 0
72 18 141 40 69 22 136 40 150 40 22 0 31 -12 68 -85 49 -100 71 -116 129 -94
56 22 65 47 58 159 -3 52 -8 109 -11 125 -8 49 11 62 141 95 92 24 125 37 143
56 27 31 27 33 0 170 -12 61 -19 118 -15 126 7 21 94 53 210 79 126 28 131 34
124 136 l-6 82 45 26 c59 35 82 28 136 -37 92 -112 143 -158 175 -158 49 0
215 127 227 174 3 12 0 46 -8 75 l-13 52 31 21 c80 56 175 142 186 168 15 37
3 76 -40 130 -38 49 -73 126 -64 143 21 35 121 147 132 147 7 0 48 -18 92 -40
44 -22 88 -40 98 -40 24 0 45 25 111 128 36 55 62 84 78 88 17 5 62 -12 161
-60 75 -36 142 -66 148 -66 15 0 62 53 116 132 45 67 51 99 33 195 -7 38 -4
46 22 80 57 71 103 152 103 178 0 41 -16 61 -79 100 l-59 36 56 102 c30 56 63
114 74 130 22 31 21 32 175 -19 56 -19 113 -34 127 -34 37 0 57 28 95 130 49
131 49 131 212 84 100 -28 137 -35 157 -28 29 10 112 142 111 177 0 12 -15 87
-33 167 -19 80 -31 148 -27 153 4 4 31 0 60 -9 82 -24 93 -17 151 90 28 52 57
99 64 105 16 13 81 -5 204 -55 45 -19 90 -34 100 -34 23 0 59 39 104 110 50
80 105 181 113 210 7 22 6 23 -8 12 -8 -7 -23 -29 -32 -49 -16 -33 -123 -202
-146 -230 -8 -8 -17 -8 -37 3 -15 8 -33 14 -41 14 -7 0 -54 18 -103 40 -132
59 -134 58 -199 -52 -41 -69 -64 -97 -90 -110 -34 -17 -35 -17 -159 27 -170
61 -186 60 -226 -14 -14 -25 -44 -73 -68 -106 -54 -75 -60 -75 -210 1 -80 40
-119 54 -134 50 -23 -8 -92 -92 -136 -169 -16 -26 -39 -56 -52 -66 -24 -19
-24 -19 -146 35 -68 29 -134 54 -147 54 -31 0 -86 -37 -103 -70 -19 -37 -118
-170 -126 -170 -4 0 -21 8 -37 18 -17 10 -55 28 -85 39 -30 12 -68 28 -85 37
-71 37 -111 13 -200 -119 -38 -57 -65 -87 -82 -91 -17 -5 -54 8 -132 45 -110
52 -154 61 -184 39 -20 -16 -126 -156 -149 -197 -9 -17 -25 -31 -35 -31 -27 0
-143 42 -138 51 3 4 -26 14 -64 24 -94 23 -110 14 -187 -102 -19 -29 -52 -71
-73 -93 -33 -35 -42 -40 -59 -31 -11 6 -23 7 -27 3 -5 -4 -5 -2 -2 4 4 7 -8
23 -26 37 -17 13 -65 57 -105 97 -73 72 -100 85 -67 33 l17 -28 -27 27 c-34
32 -42 92 -27 206 5 42 5 75 0 78 -5 3 -4 11 1 18 16 19 -13 39 -89 63 -132
42 -161 47 -170 33 -12 -20 7 -50 33 -51 16 -1 17 -3 5 -6 -36 -9 -54 14 -66
83 -6 37 -9 70 -7 74 2 4 5 48 6 99 1 80 -1 94 -17 106 -19 13 -173 53 -248
63 -37 5 -38 4 -31 -19 6 -20 5 -22 -6 -11 -10 9 -13 47 -11 155 2 130 1 146
-17 169 -11 14 -35 28 -53 31 -18 4 -64 13 -103 22 -93 20 -117 20 -113 -2 2
-13 24 -23 73 -35 65 -16 57 -17 -38 -1 -56 9 -66 38 -68 208 -1 97 -2 100
-31 127 -17 15 -40 28 -52 28 -21 0 -156 32 -187 45 -10 3 -23 0 -30 -8 -22
-23 -39 32 -39 123 0 42 -5 91 -11 107 -12 36 -62 62 -129 68 -25 2 -56 7 -70
10 -73 20 -112 -5 -41 -26 23 -7 39 -14 37 -16 -2 -3 -22 1 -45 8 -32 9 -43
19 -54 48 -18 45 -29 109 -32 184 -3 78 -19 92 -134 122 -51 13 -95 26 -98 28
-2 3 -18 1 -34 -5 -25 -9 -28 -12 -17 -26 11 -13 10 -14 -2 -10 -23 7 -47 85
-59 188 -13 116 -6 110 -191 177 -63 22 -114 49 -152 78 -57 46 -75 55 -62 33
4 -8 3 -10 -2 -5 -5 5 -9 14 -9 20 0 5 -6 12 -14 15 -9 3 -11 0 -6 -9 5 -8 -1
-5 -13 5 -25 21 -31 36 -7 16 8 -7 15 -10 15 -7 0 3 -39 36 -87 74 -200 154
-284 225 -351 293 -77 79 -170 209 -188 263 -21 65 -21 65 -40 41 -15 -18 -15
-18 -11 4 3 12 1 22 -4 22 -5 0 -9 -6 -9 -14z m37 -48 c-3 -8 -6 -5 -6 6 -1
11 2 17 5 13 3 -3 4 -12 1 -19z m909 -826 c-5 -4 -66 26 -66 33 0 3 16 -3 35
-12 19 -9 33 -18 31 -21z m134 -42 c18 -12 2 -12 -25 0 -13 6 -15 9 -5 9 8 0
22 -4 30 -9z m-339 -187 c-12 -20 -14 -14 -5 12 4 9 9 14 11 11 3 -2 0 -13 -6
-23z m2 -86 c8 -6 7 -7 -3 -4 -9 2 -16 17 -16 38 -2 31 -1 31 3 4 3 -16 10
-34 16 -38z m537 -17 c20 -6 21 -8 5 -8 -11 0 -31 4 -45 8 -20 6 -21 8 -5 8
11 0 31 -4 45 -8z m75 -20 c13 -5 14 -9 5 -9 -8 0 -24 4 -35 9 -13 5 -14 9 -5
9 8 0 24 -4 35 -9z m-367 -235 c-3 -14 -1 -25 5 -25 5 0 5 -6 -2 -14 -15 -18
-26 -120 -11 -111 6 3 7 0 4 -9 -9 -25 -24 -8 -24 26 0 40 20 158 27 158 3 0
3 -11 1 -25z m-1008 -107 c0 -6 -6 -5 -15 2 -8 7 -15 14 -15 16 0 2 7 1 15 -2
8 -4 15 -11 15 -16z m1667 16 c-3 -3 -12 -4 -19 -1 -8 3 -5 6 6 6 11 1 17 -2
13 -5z m40 -10 c-3 -3 -12 -4 -19 -1 -8 3 -5 6 6 6 11 1 17 -2 13 -5z m40 -10
c-3 -3 -12 -4 -19 -1 -8 3 -5 6 6 6 11 1 17 -2 13 -5z m-1807 -228 c0 -2 -7
-7 -16 -10 -8 -3 -12 -2 -9 4 6 10 25 14 25 6z m1961 -54 c-7 -2 -18 1 -23 6
-8 8 -4 9 13 5 13 -4 18 -8 10 -11z m-660 -15 c-10 -9 -11 -8 -5 6 3 10 9 15
12 12 3 -3 0 -11 -7 -18z m-1044 -23 c-3 -3 -12 -4 -19 -1 -8 3 -5 6 6 6 11 1
17 -2 13 -5z m1030 -45 c-15 -38 -20 -30 -11 16 4 22 10 32 14 25 4 -7 3 -25
-3 -41z m-20 -71 c-3 -7 -5 -2 -5 12 0 14 2 19 5 13 2 -7 2 -19 0 -25z m1180
-224 c-3 -3 -12 -4 -19 -1 -8 3 -5 6 6 6 11 1 17 -2 13 -5z m-948 -98 c-23
-69 -40 -86 -19 -19 18 59 32 94 37 90 2 -3 -6 -34 -18 -71z m-1590 61 c-2 -1
-13 -9 -24 -17 -19 -14 -19 -14 -6 3 7 9 18 17 24 17 6 0 8 -1 6 -3z m1575
-220 c7 -6 6 -7 -4 -4 -8 2 -16 16 -17 33 -1 25 0 26 4 4 3 -14 10 -29 17 -33z
m1263 -103 c-3 -3 -12 -4 -19 -1 -8 3 -5 6 6 6 11 1 17 -2 13 -5z m-2577 -14
c0 -5 -5 -10 -11 -10 -5 0 -7 5 -4 10 3 6 8 10 11 10 2 0 4 -4 4 -10z m2617 4
c-3 -3 -12 -4 -19 -1 -8 3 -5 6 6 6 11 1 17 -2 13 -5z m-2867 -68 c0 -2 -8
-10 -17 -17 -16 -13 -17 -12 -4 4 13 16 21 21 21 13z m-54 -41 c-14 -14 -16
-14 -16 -2 0 9 6 17 13 20 19 7 21 -1 3 -18z m1874 15 c0 -5 -4 -10 -9 -10 -5
0 -14 -13 -20 -30 -5 -16 -6 -30 -1 -30 5 0 2 -13 -6 -30 -9 -16 -17 -30 -18
-30 -7 0 12 88 24 113 13 27 30 37 30 17z m-1810 -14 c0 -3 -4 -8 -10 -11 -5
-3 -10 -1 -10 4 0 6 5 11 10 11 6 0 10 -2 10 -4z m6040 -72 c-18 -25 -35 -43
-38 -39 -4 3 -2 9 4 13 5 4 20 22 33 40 12 17 25 32 27 32 3 0 -9 -21 -26 -46z
m-6046 -9 c-4 -8 -13 -15 -22 -15 -13 0 -12 3 4 15 24 18 25 18 18 0z m1761
-92 c-9 -37 -18 -20 -9 19 4 18 9 27 11 20 3 -7 2 -24 -2 -39z m-1625 -23 c0
-5 -5 -10 -11 -10 -5 0 -7 5 -4 10 3 6 8 10 11 10 2 0 4 -4 4 -10z m-86 -36
c3 -8 2 -12 -4 -9 -6 3 -10 10 -10 16 0 14 7 11 14 -7z m5421 -2 c-3 -3 -11 0
-18 7 -9 10 -8 11 6 5 10 -3 15 -9 12 -12z m-2398 -8 c-3 -3 -12 -4 -19 -1 -8
3 -5 6 6 6 11 1 17 -2 13 -5z m-2860 -60 c-3 -3 -12 -4 -19 -1 -8 3 -5 6 6 6
11 1 17 -2 13 -5z m4463 -18 c0 -2 -8 -10 -17 -17 -16 -13 -17 -12 -4 4 13 16
21 21 21 13z m-4712 -50 c-7 -8 -15 -12 -17 -11 -5 6 10 25 20 25 5 0 4 -6 -3
-14z m256 -11 c-4 -8 -11 -15 -16 -15 -6 0 -5 6 2 15 7 8 14 15 16 15 2 0 1
-7 -2 -15z m1776 -135 c-33 -97 -40 -97 -10 0 27 86 30 94 35 89 2 -2 -9 -43
-25 -89z m2200 86 c0 -2 -8 -10 -17 -17 -16 -13 -17 -12 -4 4 13 16 21 21 21
13z m-4270 -15 c0 -5 -7 -11 -15 -15 -15 -5 -20 5 -8 17 9 10 23 9 23 -2z
m4653 -6 c-3 -9 -8 -14 -10 -11 -3 3 -2 9 2 15 9 16 15 13 8 -4z m-4472 -12
c13 -16 12 -17 -3 -4 -10 7 -18 15 -18 17 0 8 8 3 21 -13z m-164 -29 c-2 -2
-12 -1 -22 3 -18 6 -18 7 1 13 17 7 33 -5 21 -16z m123 5 c0 -4 -7 -6 -15 -3
-8 4 -15 10 -15 15 0 4 7 6 15 3 8 -4 15 -10 15 -15z m4400 7 c25 -8 36 -15
25 -15 -11 0 -33 6 -50 14 -39 18 -31 18 25 1z m85 -6 c-3 -5 -12 -10 -18 -10
-7 0 -6 4 3 10 19 12 23 12 15 0z m-4385 -20 c0 -5 -5 -10 -11 -10 -5 0 -7 5
-4 10 3 6 8 10 11 10 2 0 4 -4 4 -10z m-250 -32 c0 -6 -6 -5 -15 2 -8 7 -15
14 -15 16 0 2 7 1 15 -2 8 -4 15 -11 15 -16z m60 -11 c9 -3 4 -6 -12 -6 -27
-1 -35 8 -21 22 4 4 9 3 12 -1 3 -5 13 -12 21 -15z m4140 3 c-6 -11 -13 -20
-16 -20 -2 0 0 9 6 20 6 11 13 20 16 20 2 0 0 -9 -6 -20z m-3939 -23 c-10 -9
-11 -8 -5 6 3 10 9 15 12 12 3 -3 0 -11 -7 -18z m-181 -17 c8 -5 11 -10 5 -10
-5 0 -17 5 -25 10 -8 5 -10 10 -5 10 6 0 17 -5 25 -10z m240 -4 c0 -3 -4 -8
-10 -11 -5 -3 -10 -1 -10 4 0 6 5 11 10 11 6 0 10 -2 10 -4z m3424 -43 c-32
-47 -40 -55 -24 -23 12 24 40 60 46 60 2 0 -8 -17 -22 -37z m-3618 18 c8 6 14
8 14 4 0 -11 -44 -44 -52 -39 -5 3 -13 14 -18 24 -10 18 -8 19 16 10 19 -7 30
-7 40 1z m39 -21 c3 -5 1 -10 -4 -10 -6 0 -11 5 -11 10 0 6 2 10 4 10 3 0 8
-4 11 -10z m78 -5 c-3 -9 -8 -14 -10 -11 -3 3 -2 9 2 15 9 16 15 13 8 -4z
m257 0 c-7 -8 -17 -15 -23 -15 -6 0 -2 7 9 15 25 19 30 19 14 0z m-320 -34 c0
-5 -7 -12 -16 -15 -14 -5 -15 -4 -4 9 14 17 20 19 20 6z m115 -1 c3 -5 2 -10
-4 -10 -5 0 -13 5 -16 10 -3 6 -2 10 4 10 5 0 13 -4 16 -10z m-155 -20 c0 -5
-5 -10 -11 -10 -5 0 -7 5 -4 10 3 6 8 10 11 10 2 0 4 -4 4 -10z m270 -15 c0
-7 -30 -13 -34 -7 -3 4 4 9 15 9 10 1 19 0 19 -2z m-162 -39 c-7 -8 -15 -12
-17 -11 -5 6 10 25 20 25 5 0 4 -6 -3 -14z m-208 -6 c0 -5 -5 -10 -11 -10 -5
0 -7 5 -4 10 3 6 8 10 11 10 2 0 4 -4 4 -10z m255 -10 c3 -5 1 -10 -4 -10 -6
0 -11 5 -11 10 0 6 2 10 4 10 3 0 8 -4 11 -10z m-245 -20 c0 -5 -5 -10 -11
-10 -5 0 -7 5 -4 10 3 6 8 10 11 10 2 0 4 -4 4 -10z m128 -14 c-7 -8 -15 -12
-17 -11 -5 6 10 25 20 25 5 0 4 -6 -3 -14z m-213 -16 c3 -5 1 -10 -4 -10 -6 0
-11 5 -11 10 0 6 2 10 4 10 3 0 8 -4 11 -10z m645 6 c0 -3 -4 -8 -10 -11 -5
-3 -10 -1 -10 4 0 6 5 11 10 11 6 0 10 -2 10 -4z m-590 -25 c0 -5 -7 -12 -16
-15 -14 -5 -15 -4 -4 9 14 17 20 19 20 6z m-80 -26 c0 -15 -6 -25 -14 -25 -21
0 -25 23 -7 37 21 16 21 17 21 -12z m357 9 c-3 -3 -12 -4 -19 -1 -8 3 -5 6 6
6 11 1 17 -2 13 -5z m2039 -6 c-12 -40 -17 -50 -22 -46 -5 6 13 58 20 58 3 0
4 -6 2 -12z m-2436 -28 c0 -5 -5 -10 -11 -10 -5 0 -7 5 -4 10 3 6 8 10 11 10
2 0 4 -4 4 -10z m195 0 c3 -5 -1 -10 -10 -10 -9 0 -13 5 -10 10 3 6 8 10 10
10 2 0 7 -4 10 -10z m-131 -15 c-4 -8 -11 -12 -16 -9 -6 4 -5 10 3 15 19 12
19 11 13 -6z m46 -5 c-8 -5 -19 -10 -25 -10 -5 0 -3 5 5 10 8 5 20 10 25 10 6
0 3 -5 -5 -10z m568 -25 c-3 -3 -9 2 -12 12 -6 14 -5 15 5 6 7 -7 10 -15 7
-18z m1718 -51 c-8 -32 -15 -48 -15 -35 -1 25 20 104 26 98 2 -2 -3 -30 -11
-63z m-2281 46 c-3 -5 -12 -10 -18 -10 -7 0 -6 4 3 10 19 12 23 12 15 0z m455
0 c0 -5 -2 -10 -4 -10 -3 0 -8 5 -11 10 -3 6 -1 10 4 10 6 0 11 -4 11 -10z
m-426 -15 c-4 -8 -11 -12 -16 -9 -6 4 -5 10 3 15 19 12 19 11 13 -6z m341 -25
c-3 -5 -12 -10 -18 -10 -7 0 -6 4 3 10 19 12 23 12 15 0z m-300 -28 c-3 -3
-11 0 -18 7 -9 10 -8 11 6 5 10 -3 15 -9 12 -12z m155 14 c0 -2 -8 -10 -17
-17 -16 -13 -17 -12 -4 4 13 16 21 21 21 13z m77 -38 c-3 -8 -6 -5 -6 6 -1 11
2 17 5 13 3 -3 4 -12 1 -19z m-283 1 c3 -3 -4 -5 -14 -6 -11 -1 -20 2 -20 7 0
8 25 8 34 -1z m69 -51 c-8 -14 -19 -8 -20 12 -1 16 1 17 12 7 7 -6 11 -15 8
-19z m50 17 c-3 -9 -8 -14 -10 -11 -3 3 -2 9 2 15 9 16 15 13 8 -4z m237 5 c0
-5 -4 -10 -10 -10 -5 0 -10 5 -10 10 0 6 5 10 10 10 6 0 10 -4 10 -10z m290
-20 c0 -5 -2 -10 -4 -10 -3 0 -8 5 -11 10 -3 6 -1 10 4 10 6 0 11 -4 11 -10z
m-333 -6 c-3 -3 -12 -4 -19 -1 -8 3 -5 6 6 6 11 1 17 -2 13 -5z m-147 -20 c0
-8 -5 -12 -10 -9 -6 4 -8 11 -5 16 9 14 15 11 15 -7z m90 6 c0 -5 -4 -10 -10
-10 -5 0 -10 5 -10 10 0 6 5 10 10 10 6 0 10 -4 10 -10z m-150 -60 c-8 -5 -19
-10 -25 -10 -5 0 -3 5 5 10 8 5 20 10 25 10 6 0 3 -5 -5 -10z m2450 6 c0 -3
-4 -8 -10 -11 -5 -3 -10 -1 -10 4 0 6 5 11 10 11 6 0 10 -2 10 -4z m-2345 -26
c-3 -5 -11 -10 -16 -10 -6 0 -7 5 -4 10 3 6 11 10 16 10 6 0 7 -4 4 -10z m220
-10 c3 -5 -1 -10 -10 -10 -9 0 -13 5 -10 10 3 6 8 10 10 10 2 0 7 -4 10 -10z
m235 0 c0 -5 -5 -10 -11 -10 -5 0 -7 5 -4 10 3 6 8 10 11 10 2 0 4 -4 4 -10z
m-253 -52 c-3 -8 -6 -5 -6 6 -1 11 2 17 5 13 3 -3 4 -12 1 -19z m-501 -33 c-9
-9 -16 -13 -16 -8 0 12 22 34 28 28 2 -2 -3 -11 -12 -20z m177 10 c-3 -9 -8
-14 -10 -11 -3 3 -2 9 2 15 9 16 15 13 8 -4z m-78 -5 c3 -5 1 -10 -4 -10 -6 0
-11 5 -11 10 0 6 2 10 4 10 3 0 8 -4 11 -10z m715 -15 c0 -8 -2 -15 -4 -15 -2
0 -6 7 -10 15 -3 8 -1 15 4 15 6 0 10 -7 10 -15z m-760 -5 c0 -5 -5 -10 -11
-10 -5 0 -7 5 -4 10 3 6 8 10 11 10 2 0 4 -4 4 -10z m370 6 c0 -3 -4 -8 -10
-11 -5 -3 -10 -1 -10 4 0 6 5 11 10 11 6 0 10 -2 10 -4z m-280 -9 c0 -2 -9
-14 -20 -27 -11 -13 -20 -19 -20 -15 0 5 7 17 17 27 15 17 23 22 23 15z m2427
-19 c-3 -8 -6 -5 -6 6 -1 11 2 17 5 13 3 -3 4 -12 1 -19z m-2550 -7 c2 -21
-23 -48 -34 -37 -3 3 -1 6 5 6 7 0 12 8 12 18 0 15 8 32 15 32 0 0 1 -9 2 -19z
m338 9 c3 -5 1 -10 -4 -10 -6 0 -11 5 -11 10 0 6 2 10 4 10 3 0 8 -4 11 -10z
m-65 -4 c0 -3 -4 -8 -10 -11 -5 -3 -10 -1 -10 4 0 6 5 11 10 11 6 0 10 -2 10
-4z m180 -6 c0 -5 -8 -10 -17 -10 -15 0 -16 2 -3 10 19 12 20 12 20 0z m-546
-15 c-4 -8 -11 -15 -16 -15 -6 0 -5 6 2 15 7 8 14 15 16 15 2 0 1 -7 -2 -15z
m321 5 c-3 -5 -11 -10 -16 -10 -6 0 -7 5 -4 10 3 6 11 10 16 10 6 0 7 -4 4
-10z m585 0 c0 -5 -5 -10 -11 -10 -5 0 -7 5 -4 10 3 6 8 10 11 10 2 0 4 -4 4
-10z m2000 -4 c0 -3 -4 -8 -10 -11 -5 -3 -10 -1 -10 4 0 6 5 11 10 11 6 0 10
-2 10 -4z m-258 -24 c-7 -2 -12 -16 -13 -30 0 -15 -3 -21 -6 -14 -8 21 6 64
19 56 9 -6 9 -9 0 -12z m-2132 -12 c0 -5 -7 -7 -15 -4 -8 4 -15 8 -15 10 0 2
7 4 15 4 8 0 15 -4 15 -10z m-487 -7 c-7 -2 -21 -2 -30 0 -10 3 -4 5 12 5 17
0 24 -2 18 -5z m67 3 c0 -2 -9 -6 -20 -9 -11 -3 -18 -1 -14 4 5 9 34 13 34 5z
m100 0 c0 -3 -4 -8 -10 -11 -5 -3 -10 -1 -10 4 0 6 5 11 10 11 6 0 10 -2 10
-4z m1 -39 c-10 -9 -11 -8 -5 6 3 10 9 15 12 12 3 -3 0 -11 -7 -18z m63 7 c3
-8 2 -12 -4 -9 -6 3 -10 10 -10 16 0 14 7 11 14 -7z m-234 -14 c10 0 21 -4 24
-9 4 -5 -4 -7 -16 -3 -18 4 -20 2 -14 -14 5 -12 4 -15 -2 -9 -5 6 -12 21 -16
35 -3 14 -3 19 0 13 3 -7 14 -13 24 -13z m2709 7 c-2 -1 -13 -9 -24 -17 -19
-14 -19 -14 -6 3 7 9 18 17 24 17 6 0 8 -1 6 -3z m-2653 -35 c-17 -16 -18 -16
-5 5 7 12 15 20 18 17 3 -2 -3 -12 -13 -22z m309 18 c3 -5 2 -10 -4 -10 -5 0
-13 5 -16 10 -3 6 -2 10 4 10 5 0 13 -4 16 -10z m32 -12 c-3 -8 -6 -5 -6 6 -1
11 2 17 5 13 3 -3 4 -12 1 -19z m-367 -18 c0 -5 -5 -10 -11 -10 -5 0 -7 5 -4
10 3 6 8 10 11 10 2 0 4 -4 4 -10z m230 -10 c-13 -8 -12 -10 3 -10 9 0 17 -4
17 -10 0 -14 -16 -12 -29 3 -8 10 -7 17 1 25 6 6 14 9 17 6 3 -3 -1 -9 -9 -14z
m2371 -12 c11 -8 10 -9 -4 -4 -12 4 -21 -1 -27 -17 -8 -20 -9 -19 -9 9 -1 34
9 50 20 33 3 -6 13 -16 20 -21z m-2554 5 c-9 -9 -20 -13 -24 -9 -4 4 -1 11 7
16 25 16 35 11 17 -7z m783 7 c0 -5 -7 -10 -16 -10 -8 0 -12 5 -9 10 3 6 10
10 16 10 5 0 9 -4 9 -10z m-799 -50 c-9 -5 -8 -10 4 -20 12 -10 15 -10 15 0 0
8 2 11 5 8 7 -7 -5 -38 -14 -38 -12 0 -32 50 -25 61 3 5 10 6 16 3 7 -4 6 -9
-1 -14z m159 6 c0 -3 -4 -8 -10 -11 -5 -3 -10 -1 -10 4 0 6 5 11 10 11 6 0 10
-2 10 -4z m105 -16 c-27 -12 -43 -12 -25 0 8 5 22 9 30 9 10 0 8 -3 -5 -9z
m-65 -20 c0 -5 -5 -10 -11 -10 -5 0 -7 5 -4 10 3 6 8 10 11 10 2 0 4 -4 4 -10z
m95 0 c-3 -5 -11 -10 -16 -10 -6 0 -7 5 -4 10 3 6 11 10 16 10 6 0 7 -4 4 -10z
m469 -16 c3 -8 2 -12 -4 -9 -6 3 -10 10 -10 16 0 14 7 11 14 -7z m-644 -6 c0
-4 -9 -8 -20 -8 -11 0 -20 4 -20 9 0 6 9 9 20 8 11 -1 20 -5 20 -9z m-10 -26
c0 -4 -9 -13 -20 -20 -23 -14 -26 -8 -7 13 13 16 27 19 27 7z m80 -6 c0 -2 -8
-10 -17 -17 -16 -13 -17 -12 -4 4 13 16 21 21 21 13z m-40 -32 c0 -2 -9 -4
-20 -4 -11 0 -20 4 -20 9 0 5 9 7 20 4 11 -3 20 -7 20 -9z m-90 -39 c0 -5 -5
-3 -10 5 -5 8 -10 20 -10 25 0 6 5 3 10 -5 5 -8 10 -19 10 -25z m30 15 c0 -5
-5 -10 -11 -10 -5 0 -7 5 -4 10 3 6 8 10 11 10 2 0 4 -4 4 -10z m535 -50 c3
-5 2 -10 -4 -10 -5 0 -13 5 -16 10 -3 6 -2 10 4 10 5 0 13 -4 16 -10z m-184
-224 c-6 -7 -8 -22 -4 -32 7 -18 6 -18 -11 -1 -18 17 -18 18 0 32 24 18 30 19
15 1z m439 -240 c0 -2 -7 -6 -15 -10 -8 -3 -15 -1 -15 4 0 6 7 10 15 10 8 0
15 -2 15 -4z m35 -16 c-3 -5 -12 -10 -18 -10 -7 0 -6 4 3 10 19 12 23 12 15 0z
m412 -124 c-1 -51 4 -65 20 -59 11 4 14 3 9 -5 -13 -21 -33 -13 -39 16 -3 15
-8 34 -12 43 -4 10 -1 16 8 16 8 0 14 -5 14 -11z m47 -102 c3 -8 2 -12 -4 -9
-6 3 -10 10 -10 16 0 14 7 11 14 -7z m396 -4 c0 -5 -9 -10 -21 -10 -11 0 -17
5 -14 10 3 6 13 10 21 10 8 0 14 -4 14 -10z m190 -15 c0 -8 -2 -15 -4 -15 -2
0 -6 7 -10 15 -3 8 -1 15 4 15 6 0 10 -7 10 -15z m505 -15 c-3 -5 -12 -10 -18
-10 -7 0 -6 4 3 10 19 12 23 12 15 0z m-535 -25 c-7 -9 -15 -13 -17 -11 -7 7
7 26 19 26 6 0 6 -6 -2 -15z m410 11 c0 -2 -7 -7 -16 -10 -8 -3 -12 -2 -9 4 6
10 25 14 25 6z m-555 -26 c-7 -21 4 -27 21 -11 5 6 9 -3 10 -24 0 -19 -3 -32
-7 -29 -4 2 -5 -5 -2 -16 8 -30 23 -35 24 -8 0 21 1 21 8 3 6 -16 9 -17 17 -5
5 8 29 26 54 39 25 14 50 32 57 40 11 14 12 14 13 -4 0 -20 -34 -50 -48 -41
-4 2 -21 -7 -37 -20 -21 -18 -24 -23 -10 -19 14 5 10 -2 -13 -23 -32 -29 -32
-29 -8 -25 14 3 26 9 26 14 0 5 5 9 11 9 5 0 7 -5 3 -12 -5 -8 2 -9 26 -4 41
8 36 2 -14 -19 -21 -9 -35 -11 -31 -6 3 6 2 11 -3 11 -6 0 -13 -7 -16 -15 -8
-22 -46 -1 -46 25 0 11 -4 20 -8 20 -22 0 -56 108 -41 127 16 19 21 16 14 -7z
m935 10 c0 -5 -7 -10 -16 -10 -8 0 -12 5 -9 10 3 6 10 10 16 10 5 0 9 -4 9
-10z m-432 -14 c-7 -8 -15 -12 -17 -11 -5 6 10 25 20 25 5 0 4 -6 -3 -14z
m167 4 c-3 -5 -12 -10 -18 -10 -7 0 -6 4 3 10 19 12 23 12 15 0z m-111 -15
c-6 -16 -24 -21 -24 -7 0 11 11 22 21 22 5 0 6 -7 3 -15z m-485 -24 c7 -5 9
-11 5 -14 -5 -3 -15 1 -22 9 -14 16 -5 18 17 5z m636 -20 c-3 -6 -11 -11 -17
-11 -6 0 -6 6 2 15 14 17 26 13 15 -4z m26 -4 c-10 -9 -11 -8 -5 6 3 10 9 15
12 12 3 -3 0 -11 -7 -18z m99 8 c-7 -8 -17 -15 -22 -15 -6 0 -5 7 2 15 7 8 17
15 22 15 6 0 5 -7 -2 -15z m-225 -5 c-4 -6 -1 -18 7 -27 12 -15 11 -15 -9 -2
-26 16 -29 25 -10 32 18 8 19 8 12 -3z m-410 -10 c3 -5 1 -10 -4 -10 -6 0 -11
5 -11 10 0 6 2 10 4 10 3 0 8 -4 11 -10z m452 4 c-3 -3 -12 -4 -19 -1 -8 3 -5
6 6 6 11 1 17 -2 13 -5z m448 -12 c-3 -3 -11 0 -18 7 -9 10 -8 11 6 5 10 -3
15 -9 12 -12z m-600 -2 c3 -5 1 -10 -4 -10 -6 0 -11 5 -11 10 0 6 2 10 4 10 3
0 8 -4 11 -10z m670 2 c18 -13 15 -37 -5 -50 -24 -15 -27 -4 -4 13 15 10 15
13 -1 28 -16 17 -9 24 10 9z m55 4 c0 -3 -4 -8 -10 -11 -5 -3 -10 -1 -10 4 0
6 5 11 10 11 6 0 10 -2 10 -4z m-980 -16 c0 -5 -7 -10 -16 -10 -8 0 -12 5 -9
10 3 6 10 10 16 10 5 0 9 -4 9 -10z m433 -10 c-10 -11 -21 -20 -25 -20 -5 0
-3 9 4 20 7 11 18 20 25 20 9 0 7 -6 -4 -20z m126 -1 c-11 -11 -23 -18 -27
-15 -3 4 3 13 14 21 28 22 37 18 13 -6z m276 11 c3 -5 1 -10 -4 -10 -6 0 -11
5 -11 10 0 6 2 10 4 10 3 0 8 -4 11 -10z m-135 -16 c0 -8 -4 -12 -10 -9 -5 3
-10 10 -10 16 0 5 5 9 10 9 6 0 10 -7 10 -16z m-740 2 c0 -3 -4 -8 -10 -11 -5
-3 -10 -1 -10 4 0 6 5 11 10 11 6 0 10 -2 10 -4z m283 -12 c-4 -11 -1 -15 13
-12 11 2 22 7 25 11 3 4 12 0 20 -9 12 -16 12 -17 -3 -11 -11 4 -18 2 -18 -5
0 -6 -3 -9 -6 -5 -3 3 -15 -4 -26 -15 -15 -15 -17 -22 -8 -28 8 -5 7 -9 -6
-14 -9 -3 -18 -5 -20 -3 -6 6 9 47 17 47 16 0 9 28 -8 35 -17 7 -16 8 2 15 11
5 21 9 22 9 1 1 0 -6 -4 -15z m97 12 c0 -2 -7 -7 -16 -10 -8 -3 -12 -2 -9 4 6
10 25 14 25 6z m300 -16 c0 -11 -4 -20 -9 -20 -5 0 -7 9 -4 20 3 11 7 20 9 20
2 0 4 -9 4 -20z m-723 4 c-3 -3 -12 -4 -19 -1 -8 3 -5 6 6 6 11 1 17 -2 13 -5z
m280 -35 c-3 -10 -1 -16 4 -13 6 3 7 -4 4 -18 -3 -15 2 -32 15 -48 12 -15 18
-18 14 -7 -4 12 -1 17 11 17 12 0 15 -5 10 -20 -3 -11 -2 -20 4 -20 16 0 24
40 10 57 -11 13 -10 18 6 30 18 12 20 12 23 -2 3 -13 7 -14 18 -4 8 7 14 7 14
1 0 -16 -33 -24 -41 -10 -4 7 -11 10 -14 6 -3 -3 1 -13 10 -22 9 -9 13 -21 9
-27 -4 -7 -3 -9 3 -6 6 4 14 -4 17 -18 4 -14 11 -25 16 -25 12 0 13 17 1 24
-11 7 -11 56 -1 56 11 0 21 -30 14 -41 -3 -5 -1 -9 5 -9 5 0 13 5 16 10 3 6
14 10 24 10 10 0 26 9 36 20 10 11 20 18 23 15 3 -2 -5 -13 -18 -23 -21 -17
-21 -19 -5 -32 15 -12 19 -12 31 5 8 10 16 16 19 13 5 -4 -50 -58 -60 -58 -2
0 -2 6 0 13 3 6 -3 17 -14 24 -15 10 -22 8 -39 -7 -11 -10 -22 -25 -24 -32 -3
-8 -13 -4 -30 15 -15 16 -29 24 -32 18 -4 -6 2 -19 14 -31 11 -11 20 -26 20
-32 0 -10 2 -10 9 0 9 15 61 24 61 11 0 -5 -4 -9 -10 -9 -5 0 -7 -7 -4 -15 4
-8 1 -15 -5 -15 -6 0 -11 5 -11 12 0 6 -7 4 -18 -5 -21 -19 -25 -47 -6 -47 6
0 14 7 18 15 3 8 12 15 20 15 8 0 17 9 21 19 3 11 12 24 19 30 10 9 13 5 14
-18 0 -22 -3 -28 -14 -24 -8 3 -14 0 -14 -6 0 -6 -5 -11 -12 -11 -6 0 -21 -8
-32 -19 -29 -25 -86 -36 -86 -15 0 8 -9 33 -20 55 -12 22 -18 44 -15 49 3 6 1
10 -4 10 -6 0 -11 6 -11 13 0 7 -9 29 -20 50 -11 21 -19 50 -18 65 1 15 -2 34
-6 41 -7 10 -4 11 14 1 15 -8 20 -18 17 -31z m1287 25 c3 -8 2 -13 -3 -9 -5 3
-12 -1 -14 -7 -3 -7 -6 -3 -6 10 -1 25 14 30 23 6z m-1064 -24 c0 -4 -6 -10
-13 -13 -7 -3 -13 3 -13 13 0 10 6 16 13 13 7 -3 13 -9 13 -13z m40 11 c0 -17
-18 -21 -24 -6 -3 9 0 15 9 15 8 0 15 -4 15 -9z m70 5 c0 -2 -8 -10 -17 -17
-16 -13 -17 -12 -4 4 13 16 21 21 21 13z m50 -18 c0 -6 -6 -5 -15 2 -8 7 -15
14 -15 16 0 2 7 1 15 -2 8 -4 15 -11 15 -16z m488 1 c3 -11 2 -11 -7 1 -7 10
-11 11 -11 3 0 -7 -4 -13 -10 -13 -5 0 -7 7 -3 15 7 19 25 15 31 -6z m-94 -13
c-6 -15 -24 -23 -24 -11 0 8 24 34 28 30 1 -1 0 -10 -4 -19z m423 7 c-9 -9
-20 -13 -24 -9 -4 4 -1 11 7 16 25 16 35 11 17 -7z m-723 -5 c-3 -4 -12 -8
-20 -8 -8 0 -13 4 -10 8 3 5 12 9 20 9 8 0 13 -4 10 -9z m251 3 c-13 -12 -84
-51 -92 -51 -12 0 13 21 48 39 38 21 58 26 44 12z m405 5 c0 -2 -7 -7 -16 -10
-8 -3 -12 -2 -9 4 6 10 25 14 25 6z m-970 -21 c-7 -9 -15 -13 -17 -11 -7 7 7
26 19 26 6 0 6 -6 -2 -15z m383 8 c11 -10 -24 -43 -45 -43 -10 0 -18 5 -18 11
0 6 6 9 13 6 6 -2 20 0 31 5 15 8 16 12 5 19 -8 5 -9 9 -3 9 6 0 14 -3 17 -7z
m267 -18 c-7 -9 -15 -13 -17 -11 -6 6 20 36 26 30 2 -2 -2 -10 -9 -19z m424
16 c3 -5 -1 -11 -9 -15 -9 -3 -15 0 -15 9 0 16 16 20 24 6z m-634 -15 c0 -3
-4 -8 -10 -11 -5 -3 -10 -1 -10 4 0 6 5 11 10 11 6 0 10 -2 10 -4z m111 -25
c-14 -16 -28 -25 -29 -20 -2 5 7 18 20 29 34 29 39 24 9 -9z m179 25 c0 -3 -4
-8 -10 -11 -5 -3 -10 -1 -10 4 0 6 5 11 10 11 6 0 10 -2 10 -4z m130 -6 c0 -5
-2 -10 -4 -10 -3 0 -8 5 -11 10 -3 6 -1 10 4 10 6 0 11 -4 11 -10z m110 -10
c-6 -11 -13 -20 -16 -20 -2 0 0 9 6 20 6 11 13 20 16 20 2 0 0 -9 -6 -20z
m174 5 c-4 -8 -11 -15 -16 -15 -6 0 -5 6 2 15 7 8 14 15 16 15 2 0 1 -7 -2
-15z m-988 -27 c-14 -18 -34 -41 -43 -51 -13 -13 -14 -20 -5 -29 7 -7 12 -17
12 -22 0 -6 -5 -4 -10 4 -8 12 -11 13 -19 1 -6 -9 -11 -10 -15 -2 -4 6 -2 11
4 11 7 0 10 6 8 12 -3 7 6 21 19 31 13 10 23 26 23 34 0 9 8 22 18 29 31 24
34 15 8 -18z m92 20 c-2 -6 -10 -14 -16 -16 -7 -2 -10 2 -6 12 7 18 28 22 22
4z m54 -12 c7 4 8 2 4 -5 -9 -13 -26 -5 -25 12 0 9 2 8 6 -1 2 -6 10 -9 15 -6z
m138 -7 c0 -5 -5 -7 -12 -3 -8 5 -9 2 -5 -9 3 -10 3 -17 -2 -17 -13 0 -20 11
-14 26 6 16 33 19 33 3z m470 -9 c-14 -10 -27 -17 -29 -14 -6 5 31 33 44 33 6
1 -1 -8 -15 -19z m-710 -2 c0 -4 -4 -8 -9 -8 -6 0 -12 4 -15 8 -3 5 1 9 9 9 8
0 15 -4 15 -9z m162 -10 c-7 -7 -12 -8 -12 -2 0 14 12 26 19 19 2 -3 -1 -11
-7 -17z m229 8 c-9 -10 -8 -15 4 -20 8 -3 15 -10 15 -16 0 -14 -27 -13 -33 3
-3 9 -7 9 -20 -2 -28 -23 -19 -2 11 24 30 27 40 32 23 11z m-328 -18 c-11 -13
-18 -29 -16 -36 4 -11 1 -12 -16 -3 -12 7 -21 8 -20 4 3 -18 -2 -33 -10 -33
-5 0 -8 11 -7 25 1 17 7 25 19 25 10 0 27 9 39 20 29 27 36 25 11 -2z m57 3
c0 -6 -4 -13 -10 -16 -5 -3 -10 1 -10 9 0 9 5 16 10 16 6 0 10 -4 10 -9z m430
-1 c0 -5 -4 -10 -10 -10 -5 0 -10 5 -10 10 0 6 5 10 10 10 6 0 10 -4 10 -10z
m-575 -21 c4 -12 2 -26 -5 -33 -8 -8 -10 -7 -5 7 5 12 2 17 -9 17 -16 0 -21
12 -9 23 12 12 22 7 28 -14z m935 12 c0 -5 -7 -12 -16 -15 -24 -9 -28 -7 -14
9 14 17 30 20 30 6z m-656 -16 c-4 -8 -11 -12 -16 -9 -6 4 -5 10 3 15 19 12
19 11 13 -6z m263 -8 c1 -11 -1 -17 -4 -14 -3 4 -12 0 -19 -8 -8 -7 -19 -15
-26 -17 -10 -4 -10 -8 1 -22 12 -14 12 -16 -3 -10 -23 9 -20 25 9 53 14 12 23
26 20 30 -2 4 2 8 8 8 7 0 14 -9 14 -20z m-682 3 c3 -5 2 -10 -4 -10 -5 0 -13
5 -16 10 -3 6 -2 10 4 10 5 0 13 -4 16 -10z m305 -10 c-14 -11 -19 -20 -12
-20 9 0 6 -10 -9 -32 -18 -24 -19 -30 -7 -25 10 3 22 -1 30 -10 11 -14 11 -16
-2 -11 -10 4 -16 0 -16 -12 0 -11 6 -15 18 -12 10 2 18 8 18 12 0 5 6 15 13
22 6 8 17 22 22 32 13 23 52 39 61 25 3 -6 -7 -15 -23 -21 -29 -11 -69 -55
-59 -65 3 -3 12 2 21 11 10 9 31 24 48 33 30 15 31 15 18 0 -7 -10 -19 -17
-26 -17 -17 0 -28 -32 -14 -40 7 -5 -1 -22 -26 -49 -21 -22 -34 -41 -29 -41
13 0 74 63 74 76 0 7 5 16 11 19 12 8 51 -24 43 -36 -3 -5 -11 -3 -18 4 -8 6
-11 16 -8 21 3 5 0 6 -7 2 -6 -4 -9 -12 -5 -17 3 -6 -2 -16 -12 -24 -11 -7
-15 -17 -11 -21 4 -5 13 -2 18 6 9 12 10 12 5 -2 -3 -10 -9 -25 -12 -33 -9
-23 13 -18 31 8 15 20 17 21 26 5 5 -10 15 -18 20 -18 6 0 7 5 4 10 -4 6 -1
17 5 25 14 17 35 21 25 5 -3 -5 -2 -10 3 -10 6 0 13 7 16 16 4 9 9 14 13 11 3
-4 0 -13 -6 -21 -7 -8 -9 -21 -5 -28 5 -10 4 -10 -6 -1 -10 9 -17 7 -33 -8
-23 -21 -37 -24 -37 -9 0 6 -4 10 -10 10 -5 0 -7 -6 -4 -14 4 -10 -2 -12 -22
-8 -19 3 -25 1 -20 -7 4 -6 12 -9 17 -6 5 4 9 1 9 -6 0 -7 -10 -9 -25 -7 -21
5 -25 2 -20 -13 4 -13 1 -19 -9 -19 -9 0 -16 -4 -16 -10 0 -5 -4 -10 -10 -10
-5 0 -10 7 -10 15 0 7 -6 18 -13 22 -16 10 -48 93 -41 105 3 5 1 7 -5 6 -13
-3 -62 132 -54 145 3 5 -4 4 -14 -2 -20 -10 -33 -6 -33 11 0 5 4 7 9 4 11 -7
71 13 71 25 0 4 6 6 14 3 8 -3 17 -1 21 5 3 6 12 11 18 11 7 0 1 -9 -13 -20z
m165 10 c-3 -5 1 -10 9 -10 9 0 16 -4 16 -10 0 -5 -4 -10 -9 -10 -5 0 -17 -7
-25 -16 -9 -8 -16 -11 -16 -5 0 5 5 13 10 16 6 4 8 11 5 16 -6 9 2 29 11 29 3
0 2 -4 -1 -10z m505 -24 c-19 -18 -39 -31 -43 -29 -5 3 -15 -3 -22 -13 -8 -11
-14 -14 -15 -9 0 19 15 33 53 48 20 9 37 21 37 26 0 6 6 11 13 11 6 0 -4 -15
-23 -34z m-605 14 c3 -5 1 -10 -4 -10 -6 0 -11 5 -11 10 0 6 2 10 4 10 3 0 8
-4 11 -10z m530 -9 c-3 -6 -11 -11 -17 -11 -6 0 -6 6 2 15 14 17 26 13 15 -4z
m-175 5 c0 -2 -7 -7 -16 -10 -8 -3 -12 -2 -9 4 6 10 25 14 25 6z m30 -27 c12
-8 11 -9 -6 -4 -15 4 -24 -1 -32 -17 -7 -15 -11 -18 -11 -7 -1 14 17 39 29 39
3 0 12 -5 20 -11z m-185 -9 c3 -5 1 -10 -4 -10 -6 0 -11 5 -11 10 0 6 2 10 4
10 3 0 8 -4 11 -10z m399 -11 c-10 -11 -28 -25 -39 -31 -11 -6 -5 4 14 21 39
35 53 41 25 10z m116 17 c0 -11 -19 -15 -25 -6 -3 5 1 10 9 10 9 0 16 -2 16
-4z m-750 -16 c0 -5 -5 -10 -11 -10 -5 0 -7 -4 -4 -10 3 -6 -1 -7 -9 -4 -19 7
-21 20 -3 27 20 9 27 8 27 -3z m465 0 c-3 -5 -11 -10 -16 -10 -6 0 -7 5 -4 10
3 6 11 10 16 10 6 0 7 -4 4 -10z m225 -14 c0 -2 -7 -7 -16 -10 -8 -3 -12 -2
-9 4 6 10 25 14 25 6z m-570 -21 c-7 -9 -15 -13 -17 -11 -7 7 7 26 19 26 6 0
6 -6 -2 -15z m120 1 c0 -3 -4 -8 -10 -11 -5 -3 -10 -1 -10 4 0 6 5 11 10 11 6
0 10 -2 10 -4z m284 -13 c8 -20 -18 -51 -29 -34 -3 6 -1 10 6 9 6 -2 14 3 16
10 3 6 0 12 -6 12 -6 0 -11 5 -11 10 0 16 17 11 24 -7z m-189 -3 c-3 -5 -12
-10 -18 -10 -7 0 -6 4 3 10 19 12 23 12 15 0z m85 6 c0 -2 -9 -6 -20 -9 -11
-3 -18 -1 -14 4 5 9 34 13 34 5z m-275 -16 c3 -5 -1 -10 -9 -10 -9 0 -16 5
-16 10 0 6 4 10 9 10 6 0 13 -4 16 -10z m40 -15 c-16 -14 -34 -25 -40 -25 -5
0 4 11 20 25 17 13 35 24 40 24 6 0 -3 -11 -20 -24z m105 21 c0 -2 -8 -10 -17
-17 -16 -13 -17 -12 -4 4 13 16 21 21 21 13z m195 -6 c-3 -5 -12 -10 -18 -10
-7 0 -6 4 3 10 19 12 23 12 15 0z m-251 -35 c-22 -16 -44 -19 -44 -6 0 8 16
14 54 20 6 0 1 -6 -10 -14z m56 -30 c-12 -14 -50 -17 -50 -4 0 4 9 11 20 14
11 3 20 14 20 23 1 15 2 15 11 -1 8 -13 7 -22 -1 -32z m87 36 c19 16 16 -1 -4
-23 -9 -11 -11 -18 -5 -18 7 0 12 -4 12 -9 0 -5 -11 -4 -24 2 -14 7 -20 14
-15 18 5 3 7 14 3 25 -6 15 -4 17 6 7 10 -9 17 -10 27 -2z m-227 -41 c0 -5 -4
-10 -10 -10 -5 0 -10 5 -10 10 0 6 5 10 10 10 6 0 10 -4 10 -10z m300 6 c0 -3
-4 -8 -10 -11 -5 -3 -10 -1 -10 4 0 6 5 11 10 11 6 0 10 -2 10 -4z m-48 -28
c-7 -7 -12 -8 -12 -2 0 14 12 26 19 19 2 -3 -1 -11 -7 -17z m78 4 c0 -13 -12
-22 -22 -16 -10 6 -1 24 13 24 5 0 9 -4 9 -8z m-220 -12 c0 -5 -5 -10 -11 -10
-5 0 -7 5 -4 10 3 6 8 10 11 10 2 0 4 -4 4 -10z m60 0 c0 -5 -4 -10 -10 -10
-5 0 -10 -7 -10 -15 0 -8 -4 -15 -10 -15 -14 0 -13 23 2 38 15 15 28 16 28 2z
m40 -11 c0 -5 -5 -7 -11 -3 -9 5 -10 -1 -5 -20 5 -22 3 -26 -16 -26 -17 0 -19
3 -10 12 7 7 12 20 12 30 0 10 7 18 15 18 8 0 15 -5 15 -11z m137 -3 c0 -7 -9
-19 -20 -25 -20 -13 -18 -4 6 27 12 15 14 15 14 -2z m-232 -16 c-3 -5 -11 -10
-16 -10 -6 0 -7 5 -4 10 3 6 11 10 16 10 6 0 7 -4 4 -10z m-45 -20 c0 -5 -7
-10 -15 -10 -9 0 -18 -7 -21 -15 -4 -8 -9 -13 -14 -10 -4 2 -33 -9 -65 -26
-32 -16 -65 -28 -74 -26 -11 3 -6 9 17 18 18 8 30 19 28 26 -4 8 4 11 25 8 20
-2 46 5 72 20 49 28 47 28 47 15z m185 0 c3 -5 1 -10 -4 -10 -6 0 -11 5 -11
10 0 6 2 10 4 10 3 0 8 -4 11 -10z m-148 -6 c-3 -3 -12 -4 -19 -1 -8 3 -5 6 6
6 11 1 17 -2 13 -5z m194 -24 c5 0 9 5 9 10 0 6 5 10 12 10 8 0 7 -6 -4 -16
-18 -19 -39 -11 -37 14 1 15 2 15 6 0 2 -10 9 -18 14 -18z m-81 5 c-7 -9 -15
-13 -19 -10 -3 3 1 10 9 15 21 14 24 12 10 -5z m140 -76 c-21 -23 -33 -12 -15
14 8 12 16 33 16 47 1 19 3 17 8 -10 4 -24 1 -40 -9 -51z m-120 35 c0 -8 -4
-12 -10 -9 -5 3 -10 13 -10 21 0 8 5 12 10 9 6 -3 10 -13 10 -21z m41 9 c1
-10 2 -30 3 -45 1 -16 7 -33 14 -40 7 -7 12 -18 12 -24 0 -7 -14 1 -30 18 -17
16 -27 34 -24 40 4 7 2 8 -4 4 -7 -4 -12 -2 -12 3 0 6 5 11 11 11 5 0 9 8 8
18 -2 26 0 32 11 32 6 0 11 -8 11 -17z m32 -48 c4 -8 3 -16 -1 -19 -4 -3 -9 4
-9 15 -2 23 3 25 10 4z m41 -60 c-4 -8 -11 -15 -16 -15 -6 0 -5 6 2 15 7 8 14
15 16 15 2 0 1 -7 -2 -15z"/>
<path d="M4386 1381 c-7 -11 22 -23 36 -15 6 4 5 10 -3 15 -18 11 -26 11 -33
0z"/>
<path d="M4422 1338 c-16 -16 -15 -28 3 -28 8 0 15 9 15 20 0 23 -2 24 -18 8z"/>
<path d="M4792 1398 c-7 -7 -12 -21 -12 -32 0 -20 1 -20 22 2 15 15 19 25 12
32 -7 7 -14 6 -22 -2z"/>
<path d="M4885 1290 c-4 -6 -10 -8 -15 -5 -5 3 -11 1 -15 -5 -3 -5 0 -10 9
-10 8 0 17 -6 19 -12 4 -10 6 -10 6 0 1 7 6 10 11 7 6 -3 10 1 10 9 0 19 -17
30 -25 16z"/>
<path d="M4845 1240 c-3 -5 -2 -10 4 -10 5 0 13 5 16 10 3 6 2 10 -4 10 -5 0
-13 -4 -16 -10z"/>
<path d="M4888 1199 c-17 -12 -25 -26 -21 -35 4 -12 12 -9 34 16 42 46 36 55
-13 19z"/>
<path d="M4917 1183 c-4 -3 -7 -11 -7 -17 0 -6 5 -5 12 2 6 6 9 14 7 17 -3 3
-9 2 -12 -2z"/>
<path d="M2331 6804 c0 -11 3 -14 6 -6 3 7 2 16 -1 19 -3 4 -6 -2 -5 -13z"/>
<path d="M2240 6784 c0 -16 60 -110 60 -94 0 8 -14 35 -30 59 -17 24 -30 40
-30 35z"/>
<path d="M9156 6748 c-16 -16 -23 -28 -16 -28 10 0 9 -4 -1 -16 -8 -10 -15
-12 -17 -6 -2 6 -28 -13 -58 -43 -51 -51 -64 -77 -46 -89 8 -5 127 121 156
166 26 39 16 48 -18 16z"/>
<path d="M2157 6411 c15 -28 29 -48 31 -46 4 4 -48 95 -55 95 -2 0 8 -22 24
-49z"/>
<path d="M8555 6340 c-3 -5 -2 -10 4 -10 5 0 13 5 16 10 3 6 2 10 -4 10 -5 0
-13 -4 -16 -10z"/>
<path d="M9190 6345 c0 -6 -21 -32 -47 -59 -63 -64 -93 -106 -93 -128 0 -16
35 20 149 155 11 13 12 20 3 29 -7 7 -12 8 -12 3z"/>
<path d="M2071 6010 c14 -31 19 -36 19 -24 0 6 -7 19 -16 30 -14 18 -14 18 -3
-6z"/>
<path d="M9240 5957 c0 -9 -28 -44 -61 -78 -64 -65 -99 -114 -99 -138 0 -17 3
-14 98 97 58 67 83 115 68 129 -3 4 -6 -1 -6 -10z"/>
<path d="M8205 5830 c3 -5 8 -10 11 -10 2 0 4 5 4 10 0 6 -5 10 -11 10 -5 0
-7 -4 -4 -10z"/>
<path d="M5200 5660 c0 -5 5 -10 11 -10 5 0 7 5 4 10 -3 6 -8 10 -11 10 -2 0
-4 -4 -4 -10z"/>
<path d="M9196 5445 c-52 -70 -76 -110 -72 -121 5 -12 26 11 81 86 41 56 75
111 75 121 0 11 -1 19 -2 19 -2 0 -38 -47 -82 -105z"/>
<path d="M5590 5510 c0 -5 5 -10 10 -10 6 0 10 5 10 10 0 6 -4 10 -10 10 -5 0
-10 -4 -10 -10z"/>
<path d="M2350 5185 c-8 -9 -8 -15 -2 -15 12 0 26 19 19 26 -2 2 -10 -2 -17
-11z"/>
<path d="M7685 5140 c3 -5 8 -10 11 -10 2 0 4 5 4 10 0 6 -5 10 -11 10 -5 0
-7 -4 -4 -10z"/>
<path d="M9279 5063 c-72 -94 -101 -141 -94 -152 12 -20 151 175 143 200 -2 6
-24 -15 -49 -48z"/>
<path d="M926 3357 c3 -10 9 -15 12 -12 3 3 0 11 -7 18 -10 9 -11 8 -5 -6z"/>
<path d="M941 3325 c0 -5 11 -30 24 -55 13 -25 24 -40 24 -35 0 6 -11 30 -24
55 -13 25 -24 41 -24 35z"/>
<path d="M990 3211 c0 -5 5 -13 10 -16 6 -3 10 -2 10 4 0 5 -4 13 -10 16 -5 3
-10 2 -10 -4z"/>
</g>
</svg>
